<mxfile host="app.diagrams.net" agent="Mozilla/5.0 (X11; Linux x86_64) AppleWebKit/537.36 (KHTML, like Gecko) Chrome/127.0.0.0 Safari/537.36" version="24.7.6">
  <diagram id="R2lEEEUBdFMjLlhIrx00" name="Page-1">
    <mxGraphModel dx="547" dy="247" grid="1" gridSize="10" guides="1" tooltips="1" connect="1" arrows="1" fold="1" page="1" pageScale="1" pageWidth="850" pageHeight="1100" math="0" shadow="0" extFonts="Permanent Marker^https://fonts.googleapis.com/css?family=Permanent+Marker">
      <root>
        <mxCell id="0" />
        <mxCell id="1" parent="0" />
        <mxCell id="jo3-8f9YHCsufO_yaM-j-26" value="Meteorite" style="swimlane;fontStyle=0;childLayout=stackLayout;horizontal=1;startSize=30;horizontalStack=0;resizeParent=1;resizeParentMax=0;resizeLast=0;collapsible=1;marginBottom=0;whiteSpace=wrap;html=1;" vertex="1" parent="1">
          <mxGeometry x="240" y="280" width="140" height="60" as="geometry" />
        </mxCell>
        <mxCell id="jo3-8f9YHCsufO_yaM-j-27" value="mass (gram)" style="text;strokeColor=none;fillColor=none;align=left;verticalAlign=middle;spacingLeft=4;spacingRight=4;overflow=hidden;points=[[0,0.5],[1,0.5]];portConstraint=eastwest;rotatable=0;whiteSpace=wrap;html=1;" vertex="1" parent="jo3-8f9YHCsufO_yaM-j-26">
          <mxGeometry y="30" width="140" height="30" as="geometry" />
        </mxCell>
        <mxCell id="jo3-8f9YHCsufO_yaM-j-39" value="" style="endArrow=oval;html=1;rounded=0;endFill=0;" edge="1" parent="1">
          <mxGeometry width="50" height="50" relative="1" as="geometry">
            <mxPoint x="380" y="325" as="sourcePoint" />
            <mxPoint x="410" y="325" as="targetPoint" />
          </mxGeometry>
        </mxCell>
        <mxCell id="r--m7QEYGs-d3AuxnRQ9-52" value="&lt;font style=&quot;font-size: 7px;&quot;&gt;Classification&lt;/font&gt;" style="edgeLabel;html=1;align=center;verticalAlign=middle;resizable=0;points=[];fontFamily=Helvetica;fontSize=11;fontColor=default;labelBackgroundColor=default;" vertex="1" connectable="0" parent="jo3-8f9YHCsufO_yaM-j-39">
          <mxGeometry x="0.8253" y="1" relative="1" as="geometry">
            <mxPoint x="3" y="-10" as="offset" />
          </mxGeometry>
        </mxCell>
        <mxCell id="r--m7QEYGs-d3AuxnRQ9-16" value="" style="endArrow=oval;html=1;rounded=0;endFill=0;" edge="1" parent="1">
          <mxGeometry width="50" height="50" relative="1" as="geometry">
            <mxPoint x="309.86" y="340" as="sourcePoint" />
            <mxPoint x="309.86" y="370" as="targetPoint" />
          </mxGeometry>
        </mxCell>
        <mxCell id="r--m7QEYGs-d3AuxnRQ9-17" value="Date" style="edgeLabel;html=1;align=center;verticalAlign=middle;resizable=0;points=[];fontFamily=Helvetica;fontSize=7;fontColor=default;labelBackgroundColor=default;" vertex="1" connectable="0" parent="r--m7QEYGs-d3AuxnRQ9-16">
          <mxGeometry x="0.6218" y="-4" relative="1" as="geometry">
            <mxPoint x="-16" y="5" as="offset" />
          </mxGeometry>
        </mxCell>
        <mxCell id="r--m7QEYGs-d3AuxnRQ9-18" value="" style="endArrow=oval;html=1;rounded=0;endFill=0;" edge="1" parent="1">
          <mxGeometry width="50" height="50" relative="1" as="geometry">
            <mxPoint x="309.57" y="374" as="sourcePoint" />
            <mxPoint x="309.57" y="404" as="targetPoint" />
          </mxGeometry>
        </mxCell>
        <mxCell id="r--m7QEYGs-d3AuxnRQ9-19" value="Month" style="edgeLabel;html=1;align=center;verticalAlign=middle;resizable=0;points=[];fontFamily=Helvetica;fontSize=7;fontColor=default;labelBackgroundColor=default;" vertex="1" connectable="0" parent="r--m7QEYGs-d3AuxnRQ9-18">
          <mxGeometry x="0.6218" y="-4" relative="1" as="geometry">
            <mxPoint x="-16" y="5" as="offset" />
          </mxGeometry>
        </mxCell>
        <mxCell id="r--m7QEYGs-d3AuxnRQ9-20" value="" style="endArrow=oval;html=1;rounded=0;endFill=0;" edge="1" parent="1">
          <mxGeometry width="50" height="50" relative="1" as="geometry">
            <mxPoint x="309.86" y="407" as="sourcePoint" />
            <mxPoint x="309.86" y="437" as="targetPoint" />
          </mxGeometry>
        </mxCell>
        <mxCell id="r--m7QEYGs-d3AuxnRQ9-21" value="Quarter" style="edgeLabel;html=1;align=center;verticalAlign=middle;resizable=0;points=[];fontFamily=Helvetica;fontSize=7;fontColor=default;labelBackgroundColor=default;" vertex="1" connectable="0" parent="r--m7QEYGs-d3AuxnRQ9-20">
          <mxGeometry x="0.6218" y="-4" relative="1" as="geometry">
            <mxPoint x="-16" y="5" as="offset" />
          </mxGeometry>
        </mxCell>
        <mxCell id="r--m7QEYGs-d3AuxnRQ9-22" value="" style="endArrow=oval;html=1;rounded=0;endFill=0;" edge="1" parent="1">
          <mxGeometry width="50" height="50" relative="1" as="geometry">
            <mxPoint x="309.86" y="440" as="sourcePoint" />
            <mxPoint x="309.86" y="470" as="targetPoint" />
          </mxGeometry>
        </mxCell>
        <mxCell id="r--m7QEYGs-d3AuxnRQ9-23" value="Year" style="edgeLabel;html=1;align=center;verticalAlign=middle;resizable=0;points=[];fontFamily=Helvetica;fontSize=7;fontColor=default;labelBackgroundColor=default;" vertex="1" connectable="0" parent="r--m7QEYGs-d3AuxnRQ9-22">
          <mxGeometry x="0.6218" y="-4" relative="1" as="geometry">
            <mxPoint x="-16" y="5" as="offset" />
          </mxGeometry>
        </mxCell>
        <mxCell id="r--m7QEYGs-d3AuxnRQ9-24" value="" style="endArrow=oval;html=1;rounded=0;endFill=0;" edge="1" parent="1">
          <mxGeometry width="50" height="50" relative="1" as="geometry">
            <mxPoint x="240" y="326" as="sourcePoint" />
            <mxPoint x="210" y="326" as="targetPoint" />
          </mxGeometry>
        </mxCell>
        <mxCell id="r--m7QEYGs-d3AuxnRQ9-25" value="Location" style="edgeLabel;html=1;align=center;verticalAlign=middle;resizable=0;points=[];fontFamily=Helvetica;fontSize=7;fontColor=default;labelBackgroundColor=default;" vertex="1" connectable="0" parent="r--m7QEYGs-d3AuxnRQ9-24">
          <mxGeometry x="0.6218" y="-4" relative="1" as="geometry">
            <mxPoint x="-6" y="-6" as="offset" />
          </mxGeometry>
        </mxCell>
        <mxCell id="r--m7QEYGs-d3AuxnRQ9-26" value="" style="endArrow=oval;html=1;rounded=0;endFill=0;" edge="1" parent="1">
          <mxGeometry width="50" height="50" relative="1" as="geometry">
            <mxPoint x="207" y="326" as="sourcePoint" />
            <mxPoint x="177" y="326" as="targetPoint" />
          </mxGeometry>
        </mxCell>
        <mxCell id="r--m7QEYGs-d3AuxnRQ9-27" value="City" style="edgeLabel;html=1;align=center;verticalAlign=middle;resizable=0;points=[];fontFamily=Helvetica;fontSize=7;fontColor=default;labelBackgroundColor=default;" vertex="1" connectable="0" parent="r--m7QEYGs-d3AuxnRQ9-26">
          <mxGeometry x="0.6218" y="-4" relative="1" as="geometry">
            <mxPoint x="-6" y="-6" as="offset" />
          </mxGeometry>
        </mxCell>
        <mxCell id="r--m7QEYGs-d3AuxnRQ9-28" value="" style="endArrow=oval;html=1;rounded=0;endFill=0;" edge="1" parent="1">
          <mxGeometry width="50" height="50" relative="1" as="geometry">
            <mxPoint x="174" y="326" as="sourcePoint" />
            <mxPoint x="144" y="326" as="targetPoint" />
          </mxGeometry>
        </mxCell>
        <mxCell id="r--m7QEYGs-d3AuxnRQ9-29" value="State" style="edgeLabel;html=1;align=center;verticalAlign=middle;resizable=0;points=[];fontFamily=Helvetica;fontSize=7;fontColor=default;labelBackgroundColor=default;" vertex="1" connectable="0" parent="r--m7QEYGs-d3AuxnRQ9-28">
          <mxGeometry x="0.6218" y="-4" relative="1" as="geometry">
            <mxPoint x="-6" y="-6" as="offset" />
          </mxGeometry>
        </mxCell>
        <mxCell id="r--m7QEYGs-d3AuxnRQ9-39" value="" style="endArrow=oval;html=1;rounded=0;endFill=0;" edge="1" parent="1">
          <mxGeometry width="50" height="50" relative="1" as="geometry">
            <mxPoint x="413" y="325" as="sourcePoint" />
            <mxPoint x="443" y="325" as="targetPoint" />
          </mxGeometry>
        </mxCell>
        <mxCell id="r--m7QEYGs-d3AuxnRQ9-45" value="" style="endArrow=oval;html=1;rounded=0;endFill=0;" edge="1" parent="1">
          <mxGeometry width="50" height="50" relative="1" as="geometry">
            <mxPoint x="446" y="325" as="sourcePoint" />
            <mxPoint x="476" y="325" as="targetPoint" />
          </mxGeometry>
        </mxCell>
        <mxCell id="r--m7QEYGs-d3AuxnRQ9-47" value="" style="endArrow=none;html=1;rounded=0;strokeColor=default;align=center;verticalAlign=middle;fontFamily=Helvetica;fontSize=11;fontColor=default;labelBackgroundColor=default;" edge="1" parent="1">
          <mxGeometry width="50" height="50" relative="1" as="geometry">
            <mxPoint x="420" y="330" as="sourcePoint" />
            <mxPoint x="420" y="320" as="targetPoint" />
          </mxGeometry>
        </mxCell>
        <mxCell id="r--m7QEYGs-d3AuxnRQ9-48" value="" style="endArrow=none;html=1;rounded=0;strokeColor=default;align=center;verticalAlign=middle;fontFamily=Helvetica;fontSize=11;fontColor=default;labelBackgroundColor=default;" edge="1" parent="1">
          <mxGeometry width="50" height="50" relative="1" as="geometry">
            <mxPoint x="454" y="330" as="sourcePoint" />
            <mxPoint x="454" y="320" as="targetPoint" />
          </mxGeometry>
        </mxCell>
        <mxCell id="r--m7QEYGs-d3AuxnRQ9-49" value="" style="endArrow=oval;html=1;rounded=0;endFill=0;" edge="1" parent="1">
          <mxGeometry width="50" height="50" relative="1" as="geometry">
            <mxPoint x="141" y="326" as="sourcePoint" />
            <mxPoint x="111" y="326" as="targetPoint" />
          </mxGeometry>
        </mxCell>
        <mxCell id="r--m7QEYGs-d3AuxnRQ9-50" value="Country" style="edgeLabel;html=1;align=center;verticalAlign=middle;resizable=0;points=[];fontFamily=Helvetica;fontSize=7;fontColor=default;labelBackgroundColor=default;" vertex="1" connectable="0" parent="r--m7QEYGs-d3AuxnRQ9-49">
          <mxGeometry x="0.6218" y="-4" relative="1" as="geometry">
            <mxPoint x="-6" y="-6" as="offset" />
          </mxGeometry>
        </mxCell>
        <mxCell id="r--m7QEYGs-d3AuxnRQ9-53" value="&lt;font style=&quot;font-size: 7px;&quot;&gt;Clan&lt;/font&gt;" style="edgeLabel;html=1;align=center;verticalAlign=middle;resizable=0;points=[];fontFamily=Helvetica;fontSize=11;fontColor=default;labelBackgroundColor=default;" vertex="1" connectable="0" parent="1">
          <mxGeometry x="441.99632183908045" y="335" as="geometry" />
        </mxCell>
        <mxCell id="r--m7QEYGs-d3AuxnRQ9-54" value="&lt;font style=&quot;font-size: 7px;&quot;&gt;Class&lt;/font&gt;" style="edgeLabel;html=1;align=center;verticalAlign=middle;resizable=0;points=[];fontFamily=Helvetica;fontSize=11;fontColor=default;labelBackgroundColor=default;" vertex="1" connectable="0" parent="1">
          <mxGeometry x="474.99632183908045" y="314" as="geometry" />
        </mxCell>
        <mxCell id="r--m7QEYGs-d3AuxnRQ9-55" value="" style="endArrow=oval;html=1;rounded=0;endFill=0;" edge="1" parent="1">
          <mxGeometry width="50" height="50" relative="1" as="geometry">
            <mxPoint x="413" y="326" as="sourcePoint" />
            <mxPoint x="433" y="346" as="targetPoint" />
          </mxGeometry>
        </mxCell>
        <mxCell id="r--m7QEYGs-d3AuxnRQ9-57" value="&lt;font style=&quot;font-size: 7px;&quot;&gt;Chemical&lt;/font&gt;&lt;div style=&quot;font-size: 7px;&quot;&gt;&lt;font style=&quot;font-size: 7px;&quot;&gt;Composition&lt;/font&gt;&lt;/div&gt;" style="edgeLabel;html=1;align=center;verticalAlign=middle;resizable=0;points=[];fontFamily=Helvetica;fontSize=11;fontColor=default;labelBackgroundColor=default;" vertex="1" connectable="0" parent="r--m7QEYGs-d3AuxnRQ9-55">
          <mxGeometry x="0.5374" relative="1" as="geometry">
            <mxPoint x="22" y="19" as="offset" />
          </mxGeometry>
        </mxCell>
        <mxCell id="r--m7QEYGs-d3AuxnRQ9-58" value="" style="endArrow=oval;html=1;rounded=0;endFill=0;" edge="1" parent="1">
          <mxGeometry width="50" height="50" relative="1" as="geometry">
            <mxPoint x="410" y="328" as="sourcePoint" />
            <mxPoint x="410" y="358" as="targetPoint" />
          </mxGeometry>
        </mxCell>
        <mxCell id="r--m7QEYGs-d3AuxnRQ9-59" value="&lt;span style=&quot;font-size: 7px;&quot;&gt;Material&amp;nbsp;&lt;/span&gt;&lt;div style=&quot;font-size: 7px;&quot;&gt;&lt;span style=&quot;font-size: 7px;&quot;&gt;Type&lt;/span&gt;&lt;/div&gt;" style="edgeLabel;html=1;align=center;verticalAlign=middle;resizable=0;points=[];fontFamily=Helvetica;fontSize=7;fontColor=default;labelBackgroundColor=default;" vertex="1" connectable="0" parent="r--m7QEYGs-d3AuxnRQ9-58">
          <mxGeometry x="0.5374" relative="1" as="geometry">
            <mxPoint x="-20" y="8" as="offset" />
          </mxGeometry>
        </mxCell>
      </root>
    </mxGraphModel>
  </diagram>
</mxfile>
